<svg width="32" height="32" viewBox="0 0 32 32" fill="none" xmlns="http://www.w3.org/2000/svg">
<path d="M20.3636 14.5455C22.1745 14.5455 23.6255 13.0836 23.6255 11.2727C23.6255 9.46182 22.1745 8 20.3636 8C18.5527 8 17.0909 9.46182 17.0909 11.2727C17.0909 13.0836 18.5527 14.5455 20.3636 14.5455ZM11.6364 14.5455C13.4473 14.5455 14.8982 13.0836 14.8982 11.2727C14.8982 9.46182 13.4473 8 11.6364 8C9.82545 8 8.36364 9.46182 8.36364 11.2727C8.36364 13.0836 9.82545 14.5455 11.6364 14.5455ZM11.6364 16.7273C9.09455 16.7273 4 18.0036 4 20.5455V23.2727H19.2727V20.5455C19.2727 18.0036 14.1782 16.7273 11.6364 16.7273ZM20.3636 16.7273C20.0473 16.7273 19.6873 16.7491 19.3055 16.7818C20.5709 17.6982 21.4545 18.9309 21.4545 20.5455V23.2727H28V20.5455C28 18.0036 22.9055 16.7273 20.3636 16.7273Z" fill="#1D6C30"/>
</svg>
