<svg width="32" height="32" viewBox="0 0 32 32" fill="none" xmlns="http://www.w3.org/2000/svg">
<path d="M25.6 6H6.4C5.08 6 4.012 7.08 4.012 8.4L4 22.8C4 24.12 5.08 25.2 6.4 25.2H25.6C26.92 25.2 28 24.12 28 22.8V8.4C28 7.08 26.92 6 25.6 6ZM25.12 11.1L16.636 16.404C16.252 16.644 15.748 16.644 15.364 16.404L6.88 11.1C6.58 10.908 6.4 10.584 6.4 10.236C6.4 9.432 7.276 8.952 7.96 9.372L16 14.4L24.04 9.372C24.724 8.952 25.6 9.432 25.6 10.236C25.6 10.584 25.42 10.908 25.12 11.1Z" fill="#1D6C30"/>
</svg>
