<svg width="32" height="32" viewBox="0 0 32 32" fill="none" xmlns="http://www.w3.org/2000/svg">
<mask id="mask0_24_30" style="mask-type:alpha" maskUnits="userSpaceOnUse" x="0" y="0" width="32" height="32">
<rect width="32" height="32" fill="#D9D9D9"/>
</mask>
<g mask="url(#mask0_24_30)">
<path d="M13.8 19.6H17.4L16.71 15.73C17.11 15.53 17.425 15.24 17.655 14.86C17.885 14.48 18 14.06 18 13.6C18 12.94 17.765 12.375 17.295 11.905C16.825 11.435 16.26 11.2 15.6 11.2C14.94 11.2 14.375 11.435 13.905 11.905C13.435 12.375 13.2 12.94 13.2 13.6C13.2 14.06 13.315 14.48 13.545 14.86C13.775 15.24 14.09 15.53 14.49 15.73L13.8 19.6ZM15.6 28C12.82 27.3 10.525 25.705 8.715 23.215C6.905 20.725 6 17.96 6 14.92V7.6L15.6 4L25.2 7.6V14.92C25.2 17.96 24.295 20.725 22.485 23.215C20.675 25.705 18.38 27.3 15.6 28Z" fill="#1D6C30"/>
</g>
</svg>
