<svg width="32" height="32" viewBox="0 0 32 32" fill="none" xmlns="http://www.w3.org/2000/svg">
<mask id="mask0_24_25" style="mask-type:alpha" maskUnits="userSpaceOnUse" x="0" y="0" width="32" height="32">
<rect width="32" height="32" fill="white"/>
</mask>
<g mask="url(#mask0_24_25)">
<path d="M16 16C14.35 16 12.9375 15.4125 11.7625 14.2375C10.5875 13.0625 10 11.65 10 10C10 8.35 10.5875 6.9375 11.7625 5.7625C12.9375 4.5875 14.35 4 16 4C17.65 4 19.0625 4.5875 20.2375 5.7625C21.4125 6.9375 22 8.35 22 10C22 11.65 21.4125 13.0625 20.2375 14.2375C19.0625 15.4125 17.65 16 16 16ZM4 28V23.8C4 22.95 4.21875 22.1687 4.65625 21.4562C5.09375 20.7437 5.675 20.2 6.4 19.825C7.95 19.05 9.525 18.4688 11.125 18.0812C12.725 17.6937 14.35 17.5 16 17.5C17.65 17.5 19.275 17.6937 20.875 18.0812C22.475 18.4688 24.05 19.05 25.6 19.825C26.325 20.2 26.9062 20.7437 27.3438 21.4562C27.7812 22.1687 28 22.95 28 23.8V28H4Z" fill="#1D6C30"/>
</g>
</svg>
